# xmcd
#
# Track frame offsets: 
#        150
#        30544
#        52586
#        86319
#        104261
#        144862
#        181325
#
# Disc length: 2709 seconds
#
# Revision: 0
# Processed by: cddbd v1.5.1PL2 Copyright (c) Steve Scherf et al.
# Submitted via: ExactAudioCopy v0.95a5
#
DISCID=450a9307
DTITLE=Paulina Rubio - Don´t say goodbye
DYEAR=1900
DGENRE=
TTITLE0=spanish fly club mix
TTITLE1=album version
TTITLE2=sharp brothers european xpress vox mix
TTITLE3=spanish fly radio mix
TTITLE4=flatline remix
TTITLE5=sharp boys european xpress dub
TTITLE6=si tu te vas
EXTD=
EXTT0=
EXTT1=
EXTT2=
EXTT3=
EXTT4=
EXTT5=
EXTT6=
PLAYORDER=
